<svg xmlns="http://www.w3.org/2000/svg" version="1.1" xmlns:xlink="http://www.w3.org/1999/xlink" width="1000" height="1000"><style>
    #light-icon {
      display: inline;
    }
    #dark-icon {
      display: none;
    }

    @media (prefers-color-scheme: dark) {
      #light-icon {
        display: none;
      }
      #dark-icon {
        display: inline;
      }
    }
  </style><g id="light-icon"><svg xmlns="http://www.w3.org/2000/svg" version="1.1" xmlns:xlink="http://www.w3.org/1999/xlink" width="1000" height="1000"><g clip-path="url(#SvgjsClipPath1122)"><rect width="1000" height="1000" fill="#1b1c1b"></rect><g transform="matrix(29.166666666666668,0,0,29.166666666666668,150,150)"><svg xmlns="http://www.w3.org/2000/svg" version="1.1" xmlns:xlink="http://www.w3.org/1999/xlink" width="24" height="24"><svg xmlns="http://www.w3.org/2000/svg" fill="#76fca4" viewBox="0 0 24 24"><path d="M4.22,11.29L11.29,4.22C13.64,1.88 17.43,1.88 19.78,4.22C22.12,6.56 22.12,10.36 19.78,12.71L12.71,19.78C10.36,22.12 6.56,22.12 4.22,19.78C1.88,17.43 1.88,13.64 4.22,11.29M5.64,12.71C4.59,13.75 4.24,15.24 4.6,16.57L10.59,10.59L14.83,14.83L18.36,11.29C19.93,9.73 19.93,7.2 18.36,5.64C16.8,4.07 14.27,4.07 12.71,5.64L5.64,12.71Z"></path></svg></svg></g></g><defs><clipPath id="SvgjsClipPath1122"><rect width="1000" height="1000" x="0" y="0" rx="150" ry="150"></rect></clipPath></defs></svg></g><g id="dark-icon"><svg xmlns="http://www.w3.org/2000/svg" version="1.1" xmlns:xlink="http://www.w3.org/1999/xlink" width="1000" height="1000"><g clip-path="url(#SvgjsClipPath1123)"><rect width="1000" height="1000" fill="#1b1c1b"></rect><g transform="matrix(29.166666666666668,0,0,29.166666666666668,150,150)"><svg xmlns="http://www.w3.org/2000/svg" version="1.1" xmlns:xlink="http://www.w3.org/1999/xlink" width="24" height="24"><svg xmlns="http://www.w3.org/2000/svg" fill="#76fca4" viewBox="0 0 24 24"><path d="M4.22,11.29L11.29,4.22C13.64,1.88 17.43,1.88 19.78,4.22C22.12,6.56 22.12,10.36 19.78,12.71L12.71,19.78C10.36,22.12 6.56,22.12 4.22,19.78C1.88,17.43 1.88,13.64 4.22,11.29M5.64,12.71C4.59,13.75 4.24,15.24 4.6,16.57L10.59,10.59L14.83,14.83L18.36,11.29C19.93,9.73 19.93,7.2 18.36,5.64C16.8,4.07 14.27,4.07 12.71,5.64L5.64,12.71Z"></path></svg></svg></g></g><defs><clipPath id="SvgjsClipPath1123"><rect width="1000" height="1000" x="0" y="0" rx="150" ry="150"></rect></clipPath></defs></svg></g></svg>